<svg width="20" height="19" viewBox="0 0 20 19" fill="none" xmlns="http://www.w3.org/2000/svg">
<path d="M13.3222 12.3954L13.7578 11.9599L12.6971 10.8992L12.2616 11.3348L13.3222 12.3954ZM15.1812 11.7824L17.0105 12.7815L17.7296 11.4656L15.9003 10.4665L15.1812 11.7824ZM17.3541 14.7275L15.9944 16.0873L17.055 17.1479L18.4148 15.7881L17.3541 14.7275ZM15.1869 16.5158C13.808 16.6445 10.2286 16.5313 6.34873 12.6514L5.28807 13.7121C9.53778 17.9618 13.586 18.1718 15.3269 18.0092L15.1869 16.5158ZM6.34873 12.6514C2.64844 8.95113 2.03679 5.84057 1.96113 4.49494L0.463478 4.57838C0.559644 6.28675 1.32191 9.74592 5.28807 13.7121L6.34873 12.6514ZM7.66536 6.73859L7.93972 6.46424L6.87906 5.40358L6.6047 5.67793L7.66536 6.73859ZM8.16104 2.93082L6.95401 1.30943L5.75052 2.20604L6.95755 3.82744L8.16104 2.93082ZM2.8436 0.953753L1.341 2.45635L2.40166 3.51701L3.90426 2.01441L2.8436 0.953753ZM7.13503 6.20826C6.6047 5.67793 6.60399 5.67864 6.60329 5.67935L6.59197 5.69066C6.57639 5.70673 6.56153 5.72349 6.54742 5.74087C6.44865 5.86465 6.37013 6.00332 6.31479 6.15169C6.19674 6.48615 6.16726 6.84546 6.22923 7.19468C6.35863 8.03543 6.93351 9.14063 8.39651 10.6036L9.45717 9.54298C8.09245 8.17826 7.77072 7.35024 7.71132 6.96557C7.68375 6.78243 7.71274 6.69546 7.71981 6.67707C7.72334 6.66647 7.72476 6.66647 7.71769 6.67778C7.70562 6.69597 7.69164 6.7128 7.67597 6.72799L7.66677 6.73718C7.66607 6.73789 7.66536 6.73859 7.13503 6.20826ZM8.39651 10.6036C9.86022 12.0673 10.9647 12.6415 11.8055 12.7709C12.2354 12.8374 12.5833 12.7851 12.8485 12.6854C12.9968 12.63 13.1355 12.5515 13.2593 12.4527C13.2765 12.4384 13.2933 12.4236 13.3095 12.4082L13.3208 12.3969C13.3208 12.3969 13.3222 12.3954 12.7919 11.8651C12.2616 11.3348 12.2616 11.3348 12.263 11.3334L12.2672 11.3291C12.2849 11.3128 12.3033 11.2972 12.3224 11.2825C12.3337 11.2754 12.3337 11.2768 12.3224 11.281C12.2285 11.307 12.1297 11.3096 12.0346 11.2888C11.6499 11.2294 10.8226 10.9084 9.45717 9.54298L8.39651 10.6036ZM6.95401 1.30943C5.9683 -0.0156897 4.02447 -0.227115 2.8436 0.953753L3.90426 2.01441C4.39782 1.52085 5.27746 1.56752 5.75052 2.20463L6.95401 1.30943ZM1.96113 4.49494C1.94345 4.17038 2.09053 3.82814 2.40166 3.51701L1.341 2.45635C0.82269 2.97466 0.413273 3.70935 0.463478 4.57838L1.96113 4.49494ZM15.9944 16.0873C15.7349 16.3468 15.4605 16.4896 15.1869 16.5158L15.3269 18.0092C16.0403 17.942 16.623 17.58 17.055 17.1479L15.9944 16.0873ZM7.93972 6.46424C8.89219 5.51176 8.9622 4.00775 8.16104 2.93082L6.95755 3.82744C7.33656 4.33655 7.27928 5.00335 6.87906 5.40358L7.93972 6.46424ZM17.0091 12.7815C17.7749 13.2008 17.8944 14.1873 17.3541 14.7275L18.4148 15.7881C19.7109 14.492 19.3121 12.3311 17.7296 11.467L17.0091 12.7815ZM13.7578 11.9599C14.1149 11.6028 14.6891 11.5137 15.1812 11.7824L15.9003 10.4665C14.8489 9.893 13.5457 10.0507 12.6971 10.8992L13.7578 11.9599Z" fill="#29343D"/>
</svg>
