<svg width="20" height="22" viewBox="0 0 20 22" fill="none" xmlns="http://www.w3.org/2000/svg">
<path d="M16.8957 11.3714L9.51271 18.7544C7.59443 20.6829 5.01271 20.4918 3.36571 18.8247C1.70843 17.1772 1.51728 14.6161 3.44586 12.6875L13.5104 2.62252C14.6659 1.46752 16.3634 1.3068 17.4683 2.4018C18.5633 3.51652 18.4026 5.20423 17.2574 6.35923L7.42343 16.2027C6.92157 16.7148 6.32886 16.5639 5.977 16.2228C5.63586 15.8714 5.49486 15.2885 5.99714 14.7759L12.8676 7.9158C13.1693 7.60423 13.189 7.16237 12.8976 6.87094C12.6066 6.5898 12.1647 6.60952 11.8634 6.91123L4.96257 13.8125C3.93828 14.8368 3.97814 16.4037 4.88243 17.3079C5.86686 18.2924 7.36343 18.2722 8.38814 17.2377L18.2817 7.35352C20.1601 5.47509 20.0697 3.00437 18.4424 1.3668C16.8353 -0.230056 14.3341 -0.350485 12.4459 1.52752L2.32086 11.6628C-0.160145 14.1438 0.0305698 17.6894 2.27071 19.9295C4.51086 22.1594 8.05643 22.3501 10.5374 19.8794L17.9706 12.4462C18.2719 12.1548 18.262 11.6225 17.9603 11.3512C17.6689 11.0401 17.1974 11.0799 16.8957 11.3714Z" fill="#29343D"/>
</svg>
