<svg width="302" height="40" viewBox="0 0 302 40" fill="none" xmlns="http://www.w3.org/2000/svg">
<rect x="0.5" y="0.5" width="301" height="39" rx="3.5" stroke="#E0E6EB"/>
<path d="M31.55 28.575L25.25 22.3C24.75 22.7167 24.175 23.0417 23.525 23.275C22.875 23.5083 22.2084 23.625 21.525 23.625C19.8084 23.625 18.3584 23.0333 17.175 21.85C15.9917 20.6667 15.4 19.2167 15.4 17.5C15.4 15.8 15.9917 14.354 17.175 13.162C18.3584 11.9707 19.8084 11.375 21.525 11.375C23.225 11.375 24.6667 11.9667 25.85 13.15C27.0334 14.3333 27.625 15.7833 27.625 17.5C27.625 18.2167 27.5084 18.9 27.275 19.55C27.0417 20.2 26.725 20.7667 26.325 21.25L32.6 27.525L31.55 28.575ZM21.525 22.125C22.8084 22.125 23.896 21.675 24.788 20.775C25.6794 19.875 26.125 18.7833 26.125 17.5C26.125 16.2167 25.6794 15.125 24.788 14.225C23.896 13.325 22.8084 12.875 21.525 12.875C20.225 12.875 19.1294 13.325 18.238 14.225C17.346 15.125 16.9 16.2167 16.9 17.5C16.9 18.7833 17.346 19.875 18.238 20.775C19.1294 21.675 20.225 22.125 21.525 22.125Z" fill="#29343D"/>
<path d="M48.48 25.21C47.7753 25.21 47.1407 25.0933 46.576 24.86C46.016 24.622 45.5517 24.286 45.183 23.852C44.819 23.418 44.581 22.9023 44.469 22.305L45.519 22.13C45.687 22.7833 46.0417 23.2967 46.583 23.67C47.1243 24.0387 47.7707 24.223 48.522 24.223C49.0167 24.223 49.46 24.146 49.852 23.992C50.244 23.8333 50.552 23.6093 50.776 23.32C51 23.0307 51.112 22.6877 51.112 22.291C51.112 22.0297 51.0653 21.808 50.972 21.626C50.8787 21.4393 50.755 21.2853 50.601 21.164C50.447 21.0427 50.279 20.9423 50.097 20.863C49.915 20.779 49.7377 20.7113 49.565 20.66L47.01 19.897C46.702 19.8083 46.4173 19.6963 46.156 19.561C45.8947 19.421 45.666 19.2553 45.47 19.064C45.2787 18.868 45.1293 18.6393 45.022 18.378C44.9147 18.1167 44.861 17.818 44.861 17.482C44.861 16.9127 45.0103 16.4203 45.309 16.005C45.6077 15.5897 46.016 15.27 46.534 15.046C47.052 14.822 47.6423 14.7123 48.305 14.717C48.977 14.717 49.5767 14.836 50.104 15.074C50.636 15.312 51.0747 15.6527 51.42 16.096C51.7653 16.5347 51.994 17.055 52.106 17.657L51.028 17.853C50.958 17.4143 50.797 17.034 50.545 16.712C50.293 16.39 49.971 16.1427 49.579 15.97C49.1917 15.7927 48.7647 15.7017 48.298 15.697C47.8453 15.697 47.4417 15.774 47.087 15.928C46.737 16.0773 46.4593 16.2827 46.254 16.544C46.0487 16.8053 45.946 17.104 45.946 17.44C45.946 17.7807 46.0393 18.0537 46.226 18.259C46.4173 18.4643 46.6507 18.6253 46.926 18.742C47.206 18.8587 47.4767 18.9543 47.738 19.029L49.712 19.61C49.9173 19.666 50.1577 19.7477 50.433 19.855C50.713 19.9577 50.9837 20.107 51.245 20.303C51.511 20.4943 51.7303 20.7463 51.903 21.059C52.0757 21.3717 52.162 21.7683 52.162 22.249C52.162 22.7157 52.0687 23.1333 51.882 23.502C51.7 23.8707 51.441 24.181 51.105 24.433C50.7737 24.685 50.384 24.8763 49.936 25.007C49.4927 25.1423 49.0073 25.21 48.48 25.21ZM56.806 25.21C56.0686 25.21 55.4293 25.0467 54.888 24.72C54.3513 24.3933 53.9336 23.9337 53.635 23.341C53.3363 22.7483 53.187 22.053 53.187 21.255C53.187 20.429 53.334 19.715 53.628 19.113C53.922 18.511 54.335 18.0467 54.867 17.72C55.4036 17.3933 56.036 17.23 56.764 17.23C57.5106 17.23 58.1476 17.4027 58.675 17.748C59.2023 18.0887 59.6013 18.5787 59.872 19.218C60.1426 19.8573 60.2663 20.6203 60.243 21.507H59.193V21.143C59.1743 20.163 58.962 19.4233 58.556 18.924C58.1546 18.4247 57.5666 18.175 56.792 18.175C55.98 18.175 55.357 18.4387 54.923 18.966C54.4936 19.4933 54.279 20.2447 54.279 21.22C54.279 22.172 54.4936 22.9117 54.923 23.439C55.357 23.9617 55.9706 24.223 56.764 24.223C57.3053 24.223 57.7766 24.0993 58.178 23.852C58.584 23.6 58.9036 23.2383 59.137 22.767L60.096 23.138C59.7973 23.796 59.3563 24.307 58.773 24.671C58.1943 25.0303 57.5386 25.21 56.806 25.21ZM53.915 21.507V20.646H59.69V21.507H53.915ZM63.8227 25.21C63.2534 25.21 62.775 25.1073 62.3877 24.902C62.005 24.6967 61.718 24.4237 61.5267 24.083C61.3354 23.7423 61.2397 23.3713 61.2397 22.97C61.2397 22.5593 61.3214 22.2093 61.4847 21.92C61.6527 21.626 61.879 21.3857 62.1637 21.199C62.453 21.0123 62.7867 20.87 63.1647 20.772C63.5474 20.6787 63.9697 20.597 64.4317 20.527C64.8984 20.4523 65.3534 20.3893 65.7967 20.338C66.2447 20.282 66.6367 20.2283 66.9727 20.177L66.6087 20.401C66.6227 19.6543 66.478 19.1013 66.1747 18.742C65.8714 18.3827 65.344 18.203 64.5927 18.203C64.0747 18.203 63.636 18.3197 63.2767 18.553C62.922 18.7863 62.6724 19.155 62.5277 19.659L61.5267 19.365C61.6994 18.6883 62.047 18.1633 62.5697 17.79C63.0924 17.4167 63.7714 17.23 64.6067 17.23C65.2974 17.23 65.883 17.3607 66.3637 17.622C66.849 17.8787 67.192 18.252 67.3927 18.742C67.486 18.9613 67.5467 19.2063 67.5747 19.477C67.6027 19.7477 67.6167 20.023 67.6167 20.303V25H66.6997V23.103L66.9657 23.215C66.709 23.8637 66.31 24.3583 65.7687 24.699C65.2274 25.0397 64.5787 25.21 63.8227 25.21ZM63.9417 24.321C64.4224 24.321 64.8424 24.2347 65.2017 24.062C65.561 23.8893 65.8504 23.6537 66.0697 23.355C66.289 23.0517 66.4314 22.711 66.4967 22.333C66.5527 22.0903 66.583 21.8243 66.5877 21.535C66.5924 21.241 66.5947 21.0217 66.5947 20.877L66.9867 21.08C66.6367 21.1267 66.2564 21.1733 65.8457 21.22C65.4397 21.2667 65.0384 21.3203 64.6417 21.381C64.2497 21.4417 63.895 21.514 63.5777 21.598C63.363 21.6587 63.1554 21.745 62.9547 21.857C62.754 21.9643 62.5884 22.109 62.4577 22.291C62.3317 22.473 62.2687 22.6993 62.2687 22.97C62.2687 23.1893 62.3224 23.4017 62.4297 23.607C62.5417 23.8123 62.719 23.9827 62.9617 24.118C63.209 24.2533 63.5357 24.321 63.9417 24.321ZM69.439 25V17.44H70.363V19.26L70.181 19.022C70.265 18.798 70.3747 18.5927 70.51 18.406C70.6453 18.2147 70.7923 18.0583 70.951 17.937C71.147 17.7643 71.3757 17.6337 71.637 17.545C71.8983 17.4517 72.162 17.398 72.428 17.384C72.694 17.3653 72.9367 17.384 73.156 17.44V18.406C72.8807 18.336 72.5797 18.3197 72.253 18.357C71.9263 18.3943 71.6253 18.525 71.35 18.749C71.098 18.945 70.909 19.1807 70.783 19.456C70.657 19.7267 70.573 20.016 70.531 20.324C70.489 20.6273 70.468 20.9283 70.468 21.227V25H69.439ZM77.4832 25.21C76.7225 25.21 76.0785 25.0397 75.5512 24.699C75.0239 24.3583 74.6225 23.8893 74.3472 23.292C74.0765 22.69 73.9365 21.9993 73.9272 21.22C73.9365 20.4267 74.0812 19.7313 74.3612 19.134C74.6412 18.532 75.0449 18.0653 75.5722 17.734C76.0995 17.398 76.7389 17.23 77.4902 17.23C78.2555 17.23 78.9205 17.4167 79.4852 17.79C80.0545 18.1633 80.4442 18.6743 80.6542 19.323L79.6462 19.645C79.4689 19.1923 79.1865 18.8423 78.7992 18.595C78.4165 18.343 77.9779 18.217 77.4832 18.217C76.9279 18.217 76.4682 18.3453 76.1042 18.602C75.7402 18.854 75.4695 19.2063 75.2922 19.659C75.1149 20.1117 75.0239 20.632 75.0192 21.22C75.0285 22.1253 75.2385 22.8533 75.6492 23.404C76.0599 23.95 76.6712 24.223 77.4832 24.223C77.9965 24.223 78.4329 24.1063 78.7922 23.873C79.1562 23.635 79.4315 23.2897 79.6182 22.837L80.6542 23.145C80.3742 23.817 79.9635 24.3303 79.4222 24.685C78.8809 25.035 78.2345 25.21 77.4832 25.21ZM87.5591 25V21.143C87.5591 20.723 87.5195 20.338 87.4401 19.988C87.3608 19.6333 87.2325 19.3253 87.0551 19.064C86.8825 18.798 86.6561 18.5927 86.3761 18.448C86.1008 18.3033 85.7648 18.231 85.3681 18.231C85.0041 18.231 84.6821 18.294 84.4021 18.42C84.1268 18.546 83.8935 18.728 83.7021 18.966C83.5155 19.1993 83.3731 19.484 83.2751 19.82C83.1771 20.156 83.1281 20.5387 83.1281 20.968L82.4001 20.807C82.4001 20.0323 82.5355 19.3813 82.8061 18.854C83.0768 18.3267 83.4501 17.9277 83.9261 17.657C84.4021 17.3863 84.9481 17.251 85.5641 17.251C86.0168 17.251 86.4111 17.321 86.7471 17.461C87.0878 17.601 87.3748 17.79 87.6081 18.028C87.8461 18.266 88.0375 18.539 88.1821 18.847C88.3268 19.1503 88.4318 19.4747 88.4971 19.82C88.5625 20.1607 88.5951 20.5013 88.5951 20.842V25H87.5591ZM82.0921 25V14.92H83.0231V20.611H83.1281V25H82.0921ZM96.3504 25.21C95.5897 25.21 94.9457 25.0397 94.4184 24.699C93.891 24.3583 93.4897 23.8893 93.2144 23.292C92.9437 22.69 92.8037 21.9993 92.7944 21.22C92.8037 20.4267 92.9484 19.7313 93.2284 19.134C93.5084 18.532 93.912 18.0653 94.4394 17.734C94.9667 17.398 95.606 17.23 96.3574 17.23C97.1227 17.23 97.7877 17.4167 98.3524 17.79C98.9217 18.1633 99.3114 18.6743 99.5214 19.323L98.5134 19.645C98.336 19.1923 98.0537 18.8423 97.6664 18.595C97.2837 18.343 96.845 18.217 96.3504 18.217C95.795 18.217 95.3354 18.3453 94.9714 18.602C94.6074 18.854 94.3367 19.2063 94.1594 19.659C93.982 20.1117 93.891 20.632 93.8864 21.22C93.8957 22.1253 94.1057 22.8533 94.5164 23.404C94.927 23.95 95.5384 24.223 96.3504 24.223C96.8637 24.223 97.3 24.1063 97.6594 23.873C98.0234 23.635 98.2987 23.2897 98.4854 22.837L99.5214 23.145C99.2414 23.817 98.8307 24.3303 98.2894 24.685C97.748 25.035 97.1017 25.21 96.3504 25.21ZM103.918 25.21C103.167 25.21 102.525 25.0397 101.993 24.699C101.461 24.3583 101.053 23.887 100.768 23.285C100.484 22.683 100.341 21.9923 100.341 21.213C100.341 20.4197 100.486 19.7243 100.775 19.127C101.065 18.5297 101.475 18.0653 102.007 17.734C102.544 17.398 103.181 17.23 103.918 17.23C104.674 17.23 105.318 17.4003 105.85 17.741C106.387 18.077 106.795 18.546 107.075 19.148C107.36 19.7453 107.502 20.4337 107.502 21.213C107.502 22.0063 107.36 22.704 107.075 23.306C106.791 23.9033 106.38 24.37 105.843 24.706C105.307 25.042 104.665 25.21 103.918 25.21ZM103.918 24.223C104.758 24.223 105.384 23.9453 105.794 23.39C106.205 22.83 106.41 22.1043 106.41 21.213C106.41 20.2983 106.203 19.5703 105.787 19.029C105.377 18.4877 104.754 18.217 103.918 18.217C103.354 18.217 102.887 18.3453 102.518 18.602C102.154 18.854 101.881 19.2063 101.699 19.659C101.522 20.107 101.433 20.625 101.433 21.213C101.433 22.123 101.643 22.8533 102.063 23.404C102.483 23.95 103.102 24.223 103.918 24.223ZM114.506 25V21.143C114.506 20.723 114.467 20.338 114.387 19.988C114.308 19.6333 114.18 19.3253 114.002 19.064C113.83 18.798 113.603 18.5927 113.323 18.448C113.048 18.3033 112.712 18.231 112.315 18.231C111.951 18.231 111.629 18.294 111.349 18.42C111.074 18.546 110.841 18.728 110.649 18.966C110.463 19.1993 110.32 19.484 110.222 19.82C110.124 20.156 110.075 20.5387 110.075 20.968L109.347 20.807C109.347 20.0323 109.483 19.3813 109.753 18.854C110.024 18.3267 110.397 17.9277 110.873 17.657C111.349 17.3863 111.895 17.251 112.511 17.251C112.964 17.251 113.358 17.321 113.694 17.461C114.035 17.601 114.322 17.79 114.555 18.028C114.793 18.266 114.985 18.539 115.129 18.847C115.274 19.1503 115.379 19.4747 115.444 19.82C115.51 20.1607 115.542 20.5013 115.542 20.842V25H114.506ZM109.039 25V17.44H109.97V19.302H110.075V25H109.039ZM121.475 25C121.05 25.0887 120.63 25.1237 120.215 25.105C119.804 25.0863 119.436 24.9977 119.109 24.839C118.787 24.6803 118.542 24.433 118.374 24.097C118.239 23.817 118.164 23.5347 118.15 23.25C118.141 22.9607 118.136 22.6317 118.136 22.263V15.34H119.158V22.221C119.158 22.5383 119.16 22.8043 119.165 23.019C119.174 23.229 119.223 23.4157 119.312 23.579C119.48 23.8917 119.746 24.0783 120.11 24.139C120.479 24.1997 120.934 24.1857 121.475 24.097V25ZM116.519 18.322V17.44H121.475V18.322H116.519ZM125.127 25.21C124.558 25.21 124.08 25.1073 123.692 24.902C123.31 24.6967 123.023 24.4237 122.831 24.083C122.64 23.7423 122.544 23.3713 122.544 22.97C122.544 22.5593 122.626 22.2093 122.789 21.92C122.957 21.626 123.184 21.3857 123.468 21.199C123.758 21.0123 124.091 20.87 124.469 20.772C124.852 20.6787 125.274 20.597 125.736 20.527C126.203 20.4523 126.658 20.3893 127.101 20.338C127.549 20.282 127.941 20.2283 128.277 20.177L127.913 20.401C127.927 19.6543 127.783 19.1013 127.479 18.742C127.176 18.3827 126.649 18.203 125.897 18.203C125.379 18.203 124.941 18.3197 124.581 18.553C124.227 18.7863 123.977 19.155 123.832 19.659L122.831 19.365C123.004 18.6883 123.352 18.1633 123.874 17.79C124.397 17.4167 125.076 17.23 125.911 17.23C126.602 17.23 127.188 17.3607 127.668 17.622C128.154 17.8787 128.497 18.252 128.697 18.742C128.791 18.9613 128.851 19.2063 128.879 19.477C128.907 19.7477 128.921 20.023 128.921 20.303V25H128.004V23.103L128.27 23.215C128.014 23.8637 127.615 24.3583 127.073 24.699C126.532 25.0397 125.883 25.21 125.127 25.21ZM125.246 24.321C125.727 24.321 126.147 24.2347 126.506 24.062C126.866 23.8893 127.155 23.6537 127.374 23.355C127.594 23.0517 127.736 22.711 127.801 22.333C127.857 22.0903 127.888 21.8243 127.892 21.535C127.897 21.241 127.899 21.0217 127.899 20.877L128.291 21.08C127.941 21.1267 127.561 21.1733 127.15 21.22C126.744 21.2667 126.343 21.3203 125.946 21.381C125.554 21.4417 125.2 21.514 124.882 21.598C124.668 21.6587 124.46 21.745 124.259 21.857C124.059 21.9643 123.893 22.109 123.762 22.291C123.636 22.473 123.573 22.6993 123.573 22.97C123.573 23.1893 123.627 23.4017 123.734 23.607C123.846 23.8123 124.024 23.9827 124.266 24.118C124.514 24.2533 124.84 24.321 125.246 24.321ZM133.88 25.21C133.119 25.21 132.475 25.0397 131.948 24.699C131.42 24.3583 131.019 23.8893 130.744 23.292C130.473 22.69 130.333 21.9993 130.324 21.22C130.333 20.4267 130.478 19.7313 130.758 19.134C131.038 18.532 131.441 18.0653 131.969 17.734C132.496 17.398 133.135 17.23 133.887 17.23C134.652 17.23 135.317 17.4167 135.882 17.79C136.451 18.1633 136.841 18.6743 137.051 19.323L136.043 19.645C135.865 19.1923 135.583 18.8423 135.196 18.595C134.813 18.343 134.374 18.217 133.88 18.217C133.324 18.217 132.865 18.3453 132.501 18.602C132.137 18.854 131.866 19.2063 131.689 19.659C131.511 20.1117 131.42 20.632 131.416 21.22C131.425 22.1253 131.635 22.8533 132.046 23.404C132.456 23.95 133.068 24.223 133.88 24.223C134.393 24.223 134.829 24.1063 135.189 23.873C135.553 23.635 135.828 23.2897 136.015 22.837L137.051 23.145C136.771 23.817 136.36 24.3303 135.819 24.685C135.277 25.035 134.631 25.21 133.88 25.21ZM142.612 25C142.187 25.0887 141.767 25.1237 141.352 25.105C140.941 25.0863 140.572 24.9977 140.246 24.839C139.924 24.6803 139.679 24.433 139.511 24.097C139.375 23.817 139.301 23.5347 139.287 23.25C139.277 22.9607 139.273 22.6317 139.273 22.263V15.34H140.295V22.221C140.295 22.5383 140.297 22.8043 140.302 23.019C140.311 23.229 140.36 23.4157 140.449 23.579C140.617 23.8917 140.883 24.0783 141.247 24.139C141.615 24.1997 142.07 24.1857 142.612 24.097V25ZM137.656 18.322V17.44H142.612V18.322H137.656ZM146.922 25.203C146.035 25.203 145.305 25.0117 144.731 24.629C144.162 24.2463 143.812 23.7143 143.681 23.033L144.731 22.858C144.843 23.2873 145.097 23.6303 145.494 23.887C145.895 24.139 146.39 24.265 146.978 24.265C147.552 24.265 148.005 24.146 148.336 23.908C148.667 23.6653 148.833 23.3363 148.833 22.921C148.833 22.6877 148.779 22.4987 148.672 22.354C148.569 22.2047 148.357 22.067 148.035 21.941C147.713 21.815 147.232 21.6657 146.593 21.493C145.907 21.3063 145.37 21.1197 144.983 20.933C144.596 20.7463 144.32 20.5317 144.157 20.289C143.994 20.0417 143.912 19.7407 143.912 19.386C143.912 18.9567 144.033 18.581 144.276 18.259C144.519 17.9323 144.855 17.6803 145.284 17.503C145.713 17.321 146.213 17.23 146.782 17.23C147.351 17.23 147.86 17.3233 148.308 17.51C148.761 17.692 149.125 17.9487 149.4 18.28C149.675 18.6113 149.839 18.9963 149.89 19.435L148.84 19.624C148.77 19.1807 148.548 18.8307 148.175 18.574C147.806 18.3127 147.337 18.1773 146.768 18.168C146.231 18.154 145.795 18.2567 145.459 18.476C145.123 18.6907 144.955 18.9777 144.955 19.337C144.955 19.5377 145.016 19.7103 145.137 19.855C145.258 19.995 145.478 20.128 145.795 20.254C146.117 20.38 146.574 20.5177 147.167 20.667C147.862 20.8443 148.408 21.031 148.805 21.227C149.202 21.423 149.484 21.654 149.652 21.92C149.82 22.186 149.904 22.515 149.904 22.907C149.904 23.621 149.638 24.1833 149.106 24.594C148.579 25 147.851 25.203 146.922 25.203Z" fill="#29343D"/>
</svg>
