<svg width="88" height="24" viewBox="0 0 88 24" fill="none" xmlns="http://www.w3.org/2000/svg">
<path d="M15 8H15.01M12.5 21H6C5.20435 21 4.44129 20.6839 3.87868 20.1213C3.31607 19.5587 3 18.7956 3 18V6C3 5.20435 3.31607 4.44129 3.87868 3.87868C4.44129 3.31607 5.20435 3 6 3H18C18.7956 3 19.5587 3.31607 20.1213 3.87868C20.6839 4.44129 21 5.20435 21 6V12.5" stroke="#29343D" stroke-width="2" stroke-linecap="round" stroke-linejoin="round"/>
<path d="M3 15.9998L8 10.9998C8.928 10.1068 10.072 10.1068 11 10.9998L15 14.9998" stroke="#29343D" stroke-width="2" stroke-linecap="round" stroke-linejoin="round"/>
<path d="M14 14L15 13C15.67 12.356 16.45 12.176 17.182 12.46M16 19H22M19 16V22" stroke="#29343D" stroke-width="2" stroke-linecap="round" stroke-linejoin="round"/>
<path d="M50.8957 12.3714L43.5127 19.7544C41.5944 21.6829 39.0127 21.4918 37.3657 19.8247C35.7084 18.1772 35.5173 15.6161 37.4459 13.6875L47.5104 3.62252C48.6659 2.46752 50.3634 2.3068 51.4683 3.4018C52.5633 4.51652 52.4026 6.20423 51.2574 7.35923L41.4234 17.2027C40.9216 17.7148 40.3289 17.5639 39.977 17.2228C39.6359 16.8714 39.4949 16.2885 39.9971 15.7759L46.8676 8.9158C47.1693 8.60423 47.189 8.16237 46.8976 7.87094C46.6066 7.5898 46.1647 7.60952 45.8634 7.91123L38.9626 14.8125C37.9383 15.8368 37.9781 17.4037 38.8824 18.3079C39.8669 19.2924 41.3634 19.2722 42.3881 18.2377L52.2817 8.35352C54.1601 6.47509 54.0697 4.00437 52.4424 2.3668C50.8353 0.769944 48.3341 0.649515 46.4459 2.52752L36.3209 12.6628C33.8399 15.1438 34.0306 18.6894 36.2707 20.9295C38.5109 23.1594 42.0564 23.3501 44.5374 20.8794L51.9706 13.4462C52.2719 13.1548 52.262 12.6225 51.9603 12.3512C51.6689 12.0401 51.1974 12.0799 50.8957 12.3714Z" fill="#29343D"/>
<path d="M69.25 9.75C69.4489 9.75 69.6397 9.82902 69.7803 9.96967C69.921 10.1103 70 10.3011 70 10.5V12C70 13.5913 70.6321 15.1174 71.7574 16.2426C72.8826 17.3679 74.4087 18 76 18C77.5913 18 79.1174 17.3679 80.2426 16.2426C81.3679 15.1174 82 13.5913 82 12V10.5C82 10.3011 82.079 10.1103 82.2197 9.96967C82.3603 9.82902 82.5511 9.75 82.75 9.75C82.9489 9.75 83.1397 9.82902 83.2803 9.96967C83.421 10.1103 83.5 10.3011 83.5 10.5V12C83.5 13.8593 82.8094 15.6523 81.5622 17.0312C80.3149 18.4101 78.6 19.2766 76.75 19.4625V22.5H81.25C81.4489 22.5 81.6397 22.579 81.7803 22.7197C81.921 22.8603 82 23.0511 82 23.25C82 23.4489 81.921 23.6397 81.7803 23.7803C81.6397 23.921 81.4489 24 81.25 24H70.75C70.5511 24 70.3603 23.921 70.2197 23.7803C70.079 23.6397 70 23.4489 70 23.25C70 23.0511 70.079 22.8603 70.2197 22.7197C70.3603 22.579 70.5511 22.5 70.75 22.5H75.25V19.4625C73.4 19.2766 71.6851 18.4101 70.4378 17.0312C69.1906 15.6523 68.5 13.8593 68.5 12V10.5C68.5 10.3011 68.579 10.1103 68.7197 9.96967C68.8603 9.82902 69.0511 9.75 69.25 9.75Z" fill="#29343D"/>
<path d="M79 12C79 12.7956 78.6839 13.5587 78.1213 14.1213C77.5587 14.6839 76.7956 15 76 15C75.2044 15 74.4413 14.6839 73.8787 14.1213C73.3161 13.5587 73 12.7956 73 12V4.5C73 3.70435 73.3161 2.94129 73.8787 2.37868C74.4413 1.81607 75.2044 1.5 76 1.5C76.7956 1.5 77.5587 1.81607 78.1213 2.37868C78.6839 2.94129 79 3.70435 79 4.5V12ZM76 0C74.8065 0 73.6619 0.474106 72.818 1.31802C71.9741 2.16193 71.5 3.30653 71.5 4.5V12C71.5 13.1935 71.9741 14.3381 72.818 15.182C73.6619 16.0259 74.8065 16.5 76 16.5C77.1935 16.5 78.3381 16.0259 79.182 15.182C80.0259 14.3381 80.5 13.1935 80.5 12V4.5C80.5 3.30653 80.0259 2.16193 79.182 1.31802C78.3381 0.474106 77.1935 0 76 0Z" fill="#29343D"/>
</svg>
